<svg width="16" height="16" viewBox="0 0 16 16" fill="none" xmlns="http://www.w3.org/2000/svg">
<path fill-rule="evenodd" clip-rule="evenodd" d="M5.3335 1.33203C5.70169 1.33203 6.00016 1.63051 6.00016 1.9987H10.0002C10.0002 1.63051 10.2986 1.33203 10.6668 1.33203C11.035 1.33203 11.3335 1.63051 11.3335 1.9987C13.1744 1.9987 14.6668 3.49108 14.6668 5.33203V11.332C14.6668 13.173 13.1744 14.6654 11.3335 14.6654H4.66683C2.82588 14.6654 1.3335 13.173 1.3335 11.332V5.33203C1.3335 3.49108 2.82588 1.9987 4.66683 1.9987C4.66683 1.63051 4.96531 1.33203 5.3335 1.33203ZM10.4865 7.78799C10.7383 7.51939 10.7247 7.0975 10.4561 6.84567C10.1875 6.59385 9.76562 6.60746 9.5138 6.87607L7.43742 9.09088L6.41918 8.26805C6.1328 8.03663 5.71305 8.08119 5.48163 8.36757C5.25022 8.65394 5.29477 9.07369 5.58115 9.30511L7.08115 10.5172C7.35275 10.7367 7.74769 10.7094 7.98652 10.4547L10.4865 7.78799Z" fill="black" fill-opacity="0.35"/>
</svg>
