<svg width="20" height="20" viewBox="0 0 20 20" fill="none" xmlns="http://www.w3.org/2000/svg">
<path fill-rule="evenodd" clip-rule="evenodd" d="M15.3851 2.43632C16.8524 1.77855 18.3556 3.28173 17.6978 4.74906L12.2856 16.8224C11.4888 18.5999 8.99337 18.6762 8.0895 16.9506L6.76558 14.4231C6.52954 13.9725 6.16165 13.6046 5.71102 13.3685L3.18354 12.0446C1.45796 11.1407 1.53422 8.64532 3.31176 7.84849L15.3851 2.43632ZM16.1153 3.94785C16.1098 3.94668 16.0964 3.94392 16.0668 3.95717L3.99352 9.36934C3.48565 9.59701 3.46387 10.31 3.95689 10.5682L6.48437 11.8922C7.23541 12.2856 7.84857 12.8987 8.24197 13.6498L9.56589 16.1772C9.82414 16.6703 10.5371 16.6485 10.7648 16.1406L16.177 4.0673C16.1902 4.03774 16.1874 4.02434 16.1863 4.0188C16.184 4.00816 16.1766 3.99109 16.1598 3.97429C16.143 3.95748 16.126 3.95011 16.1153 3.94785Z" fill="black"/>
</svg>
